<svg xmlns="http://www.w3.org/2000/svg" viewBox="0 0 64 64">
  <defs>
    <filter id="s" x="-20%" y="-20%" width="140%" height="140%">
      <feDropShadow dx="0" dy="1.5" stdDeviation="1.5" flood-color="#000" flood-opacity="0.25"/>
    </filter>
  </defs>
  <g filter="url(#s)">
    <path d="M32 2C20 2 10 12 10 24c0 13 22 36 22 36s22-23 22-36C54 12 44 2 32 2z" fill="#f59e0b" stroke="#b45309" stroke-width="2"/>
    <path d="M32 14c-1.66 0-3 1.34-3 3v13c0 1.66 1.34 3 3 3s3-1.34 3-3V17c0-1.66-1.34-3-3-3zM32 38a4 4 0 1 0 0 8 4 4 0 0 0 0-8z" fill="#111827"/>
  </g>
</svg>
